<?xml version="1.0" encoding="UTF-8"?>
<svg xmlns="http://www.w3.org/2000/svg" xmlns:xlink="http://www.w3.org/1999/xlink" width="20px" height="20px" viewBox="0 0 20 20" version="1.1">
<g id="surface1">
<path style=" stroke:none;fill-rule:nonzero;fill:rgb(90.196079%,90.196079%,90.196079%);fill-opacity:1;" d="M 0 15.171875 L 4.828125 15.171875 L 4.828125 20 L 0 20 Z M 0 15.171875 "/>
<path style=" stroke:none;fill-rule:nonzero;fill:rgb(90.196079%,90.196079%,90.196079%);fill-opacity:1;" d="M 0 7.585938 L 4.828125 7.585938 L 4.828125 12.414062 L 0 12.414062 Z M 0 7.585938 "/>
<path style=" stroke:none;fill-rule:nonzero;fill:rgb(90.196079%,90.196079%,90.196079%);fill-opacity:1;" d="M 0 0 L 4.828125 0 L 4.828125 4.828125 L 0 4.828125 Z M 0 0 "/>
<path style=" stroke:none;fill-rule:nonzero;fill:rgb(90.196079%,90.196079%,90.196079%);fill-opacity:1;" d="M 7.585938 15.171875 L 12.414062 15.171875 L 12.414062 20 L 7.585938 20 Z M 7.585938 15.171875 "/>
<path style=" stroke:none;fill-rule:nonzero;fill:rgb(90.196079%,90.196079%,90.196079%);fill-opacity:1;" d="M 7.585938 7.585938 L 12.414062 7.585938 L 12.414062 12.414062 L 7.585938 12.414062 Z M 7.585938 7.585938 "/>
<path style=" stroke:none;fill-rule:nonzero;fill:rgb(90.196079%,90.196079%,90.196079%);fill-opacity:1;" d="M 7.585938 0 L 12.414062 0 L 12.414062 4.828125 L 7.585938 4.828125 Z M 7.585938 0 "/>
<path style=" stroke:none;fill-rule:nonzero;fill:rgb(90.196079%,90.196079%,90.196079%);fill-opacity:1;" d="M 15.171875 15.171875 L 20 15.171875 L 20 20 L 15.171875 20 Z M 15.171875 15.171875 "/>
<path style=" stroke:none;fill-rule:nonzero;fill:rgb(90.196079%,90.196079%,90.196079%);fill-opacity:1;" d="M 15.171875 7.585938 L 20 7.585938 L 20 12.414062 L 15.171875 12.414062 Z M 15.171875 7.585938 "/>
<path style=" stroke:none;fill-rule:nonzero;fill:rgb(90.196079%,90.196079%,90.196079%);fill-opacity:1;" d="M 15.171875 0 L 20 0 L 20 4.828125 L 15.171875 4.828125 Z M 15.171875 0 "/>
</g>
</svg>
