<?xml version="1.0" encoding="UTF-8"?>
<svg xmlns="http://www.w3.org/2000/svg" xmlns:xlink="http://www.w3.org/1999/xlink" width="24px" height="24px" viewBox="0 0 24 24" version="1.1">
<g id="surface1">
<path style=" stroke:none;fill-rule:nonzero;fill:rgb(0%,0%,0%);fill-opacity:1;" d="M 0 18.207031 L 5.792969 18.207031 L 5.792969 24 L 0 24 Z M 0 18.207031 "/>
<path style=" stroke:none;fill-rule:nonzero;fill:rgb(0%,0%,0%);fill-opacity:1;" d="M 0 9.101562 L 5.792969 9.101562 L 5.792969 14.898438 L 0 14.898438 Z M 0 9.101562 "/>
<path style=" stroke:none;fill-rule:nonzero;fill:rgb(0%,0%,0%);fill-opacity:1;" d="M 0 0 L 5.792969 0 L 5.792969 5.792969 L 0 5.792969 Z M 0 0 "/>
<path style=" stroke:none;fill-rule:nonzero;fill:rgb(0%,0%,0%);fill-opacity:1;" d="M 9.101562 18.207031 L 14.898438 18.207031 L 14.898438 24 L 9.101562 24 Z M 9.101562 18.207031 "/>
<path style=" stroke:none;fill-rule:nonzero;fill:rgb(0%,0%,0%);fill-opacity:1;" d="M 9.101562 9.101562 L 14.898438 9.101562 L 14.898438 14.898438 L 9.101562 14.898438 Z M 9.101562 9.101562 "/>
<path style=" stroke:none;fill-rule:nonzero;fill:rgb(0%,0%,0%);fill-opacity:1;" d="M 9.101562 0 L 14.898438 0 L 14.898438 5.792969 L 9.101562 5.792969 Z M 9.101562 0 "/>
<path style=" stroke:none;fill-rule:nonzero;fill:rgb(0%,0%,0%);fill-opacity:1;" d="M 18.207031 18.207031 L 24 18.207031 L 24 24 L 18.207031 24 Z M 18.207031 18.207031 "/>
<path style=" stroke:none;fill-rule:nonzero;fill:rgb(0%,0%,0%);fill-opacity:1;" d="M 18.207031 9.101562 L 24 9.101562 L 24 14.898438 L 18.207031 14.898438 Z M 18.207031 9.101562 "/>
<path style=" stroke:none;fill-rule:nonzero;fill:rgb(0%,0%,0%);fill-opacity:1;" d="M 18.207031 0 L 24 0 L 24 5.792969 L 18.207031 5.792969 Z M 18.207031 0 "/>
</g>
</svg>
