<?xml version="1.0" encoding="UTF-8"?>
<svg xmlns="http://www.w3.org/2000/svg" xmlns:xlink="http://www.w3.org/1999/xlink" width="128px" height="128px" viewBox="0 0 128 128" version="1.1">
<defs>
<filter id="alpha" filterUnits="objectBoundingBox" x="0%" y="0%" width="100%" height="100%">
  <feColorMatrix type="matrix" in="SourceGraphic" values="0 0 0 0 1 0 0 0 0 1 0 0 0 0 1 0 0 0 1 0"/>
</filter>
<mask id="mask0">
  <g filter="url(#alpha)">
<rect x="0" y="0" width="128" height="128" style="fill:rgb(0%,0%,0%);fill-opacity:0.8;stroke:none;"/>
  </g>
</mask>
<clipPath id="clip1">
  <rect x="0" y="0" width="128" height="128"/>
</clipPath>
<g id="surface5" clip-path="url(#clip1)">
<path style=" stroke:none;fill-rule:nonzero;fill:rgb(0%,0%,0%);fill-opacity:1;" d="M 87.027344 59.238281 C 82.855469 59.410156 79.558594 62.828125 79.554688 66.984375 C 79.554688 71.269531 83.046875 74.746094 87.355469 74.746094 C 91.664062 74.746094 95.15625 71.269531 95.15625 66.984375 C 95.148438 62.855469 91.894531 59.449219 87.746094 59.246094 C 89.738281 59.445312 91.253906 61.113281 91.257812 63.105469 C 91.257812 65.246094 89.511719 66.984375 87.355469 66.984375 C 85.203125 66.984375 83.457031 65.246094 83.457031 63.105469 C 83.457031 61.085938 85.007812 59.40625 87.027344 59.238281 Z M 87.027344 59.238281 "/>
</g>
<mask id="mask1">
  <g filter="url(#alpha)">
<rect x="0" y="0" width="128" height="128" style="fill:rgb(0%,0%,0%);fill-opacity:0.8;stroke:none;"/>
  </g>
</mask>
<clipPath id="clip2">
  <rect x="0" y="0" width="128" height="128"/>
</clipPath>
<g id="surface8" clip-path="url(#clip2)">
<path style=" stroke:none;fill-rule:nonzero;fill:rgb(0%,0%,0%);fill-opacity:1;" d="M 40.222656 59.238281 C 36.046875 59.410156 32.753906 62.828125 32.75 66.984375 C 32.75 71.269531 36.242188 74.746094 40.550781 74.746094 C 44.855469 74.746094 48.347656 71.269531 48.347656 66.984375 C 48.34375 62.855469 45.085938 59.449219 40.941406 59.246094 C 42.933594 59.445312 44.449219 61.113281 44.449219 63.105469 C 44.449219 65.246094 42.703125 66.984375 40.550781 66.984375 C 38.394531 66.984375 36.648438 65.246094 36.648438 63.105469 C 36.648438 61.085938 38.203125 59.40625 40.222656 59.238281 Z M 40.222656 59.238281 "/>
</g>
<mask id="mask2">
  <g filter="url(#alpha)">
<rect x="0" y="0" width="128" height="128" style="fill:rgb(0%,0%,0%);fill-opacity:0.25;stroke:none;"/>
  </g>
</mask>
<linearGradient id="linear0" gradientUnits="userSpaceOnUse" x1="41.208" y1="47.544998" x2="41.208" y2="13.291" gradientTransform="matrix(2.599988,0,0,2.586986,-19.245733,-18.383983)">
<stop offset="0" style="stop-color:rgb(0%,0%,0%);stop-opacity:1;"/>
<stop offset="1" style="stop-color:rgb(0%,0%,0%);stop-opacity:0;"/>
</linearGradient>
<clipPath id="clip3">
  <rect x="0" y="0" width="128" height="128"/>
</clipPath>
<g id="surface11" clip-path="url(#clip3)">
<path style=" stroke:none;fill-rule:nonzero;fill:url(#linear0);" d="M 108.484375 16 C 108.484375 30.519531 94.210938 30.757812 93.726562 30.761719 C 94.652344 35.429688 95.132812 40.203125 95.152344 44.996094 C 95.128906 71.753906 80.976562 95.609375 59.789062 104.613281 L 78.796875 104.613281 C 78.796875 104.613281 103.789062 84.417969 108.484375 75.074219 C 116.308594 59.507812 115.90625 23.382812 115.90625 23.382812 C 116.957031 16.070312 108.484375 16 108.484375 16 Z M 108.484375 16 "/>
</g>
<mask id="mask3">
  <g filter="url(#alpha)">
<rect x="0" y="0" width="128" height="128" style="fill:rgb(0%,0%,0%);fill-opacity:0.25;stroke:none;"/>
  </g>
</mask>
<linearGradient id="linear1" gradientUnits="userSpaceOnUse" x1="34.601002" y1="50.400002" x2="34.601002" y2="45.085999" gradientTransform="matrix(2.599988,0,0,2.586986,-19.245733,-18.383983)">
<stop offset="0" style="stop-color:rgb(0%,0%,0%);stop-opacity:1;"/>
<stop offset="1" style="stop-color:rgb(0%,0%,0%);stop-opacity:0;"/>
</linearGradient>
<clipPath id="clip4">
  <rect x="0" y="0" width="128" height="128"/>
</clipPath>
<g id="surface14" clip-path="url(#clip4)">
<path style=" stroke:none;fill-rule:evenodd;fill:url(#linear1);" d="M 70.550781 98.253906 C 70.671875 98.929688 70.734375 99.613281 70.738281 100.300781 C 70.734375 105.265625 67.582031 109.792969 62.632812 111.945312 C 63.066406 111.972656 63.496094 112 63.953125 112 C 74.449219 112 78.796875 104.613281 78.796875 104.613281 C 78.796875 104.613281 76.597656 100.277344 70.550781 98.25 Z M 70.550781 98.253906 "/>
</g>
</defs>
<g id="surface1">
<path style=" stroke:none;fill-rule:nonzero;fill:rgb(36.078432%,30.588236%,23.529412%);fill-opacity:1;" d="M 19.425781 16.003906 C 19.425781 16.003906 12.003906 16.003906 12.003906 23.386719 C 12.003906 23.386719 11.601562 59.511719 19.425781 75.078125 C 24.113281 84.421875 49.113281 104.621094 49.113281 104.621094 L 78.804688 104.621094 C 78.804688 104.621094 103.796875 84.421875 108.488281 75.078125 C 116.3125 59.507812 115.914062 23.386719 115.914062 23.386719 C 116.964844 16.070312 108.488281 16.003906 108.488281 16.003906 C 108.488281 30.773438 93.644531 30.773438 93.644531 30.773438 L 34.265625 30.773438 C 34.265625 30.773438 19.425781 30.773438 19.425781 16.003906 Z M 19.425781 16.003906 "/>
<path style=" stroke:none;fill-rule:nonzero;fill:rgb(100%,100%,100%);fill-opacity:1;" d="M 97.757812 64.398438 C 97.757812 70.113281 93.101562 74.746094 87.355469 74.746094 C 81.613281 74.746094 76.957031 70.113281 76.957031 64.398438 C 76.957031 58.683594 81.613281 54.050781 87.355469 54.050781 C 93.101562 54.050781 97.757812 58.683594 97.757812 64.398438 Z M 97.757812 64.398438 "/>
<use xlink:href="#surface5" mask="url(#mask0)"/>
<path style=" stroke:none;fill-rule:nonzero;fill:rgb(100%,100%,100%);fill-opacity:1;" d="M 50.949219 64.398438 C 50.949219 70.113281 46.292969 74.746094 40.550781 74.746094 C 34.804688 74.746094 30.148438 70.113281 30.148438 64.398438 C 30.148438 58.683594 34.804688 54.050781 40.550781 54.050781 C 46.292969 54.050781 50.949219 58.683594 50.949219 64.398438 Z M 50.949219 64.398438 "/>
<use xlink:href="#surface8" mask="url(#mask1)"/>
<use xlink:href="#surface11" mask="url(#mask2)"/>
<path style=" stroke:none;fill-rule:evenodd;fill:rgb(14.509805%,14.509805%,14.509805%);fill-opacity:1;" d="M 49.113281 104.621094 C 49.113281 104.621094 53.457031 112.003906 63.957031 112.003906 C 74.449219 112.003906 78.804688 104.621094 78.804688 104.621094 C 78.804688 104.621094 75.09375 97.234375 63.957031 97.234375 C 52.824219 97.234375 49.113281 104.621094 49.113281 104.621094 Z M 49.113281 104.621094 "/>
<use xlink:href="#surface14" mask="url(#mask3)"/>
</g>
</svg>
