<?xml version="1.0" encoding="UTF-8"?>
<svg xmlns="http://www.w3.org/2000/svg" xmlns:xlink="http://www.w3.org/1999/xlink" width="128px" height="128px" viewBox="0 0 128 128" version="1.1">
<g id="surface1">
<path style=" stroke:none;fill-rule:nonzero;fill:rgb(95.294118%,61.960787%,19.607843%);fill-opacity:1;" d="M 64 7.632812 C 50.640625 7.632812 38.351562 12.289062 28.6875 20.0625 L 39.457031 32.59375 C 46.222656 27.296875 54.734375 24.144531 63.984375 24.144531 C 73.230469 24.144531 81.742188 27.296875 88.511719 32.59375 L 99.28125 20.0625 C 89.648438 12.289062 77.359375 7.632812 64 7.632812 Z M 64 7.632812 "/>
<path style=" stroke:none;fill-rule:nonzero;fill:rgb(100%,100%,100%);fill-opacity:1;" d="M 102.160156 22.511719 L 91.375 35.039062 C 99.054688 42.304688 103.855469 52.59375 103.855469 64 C 103.855469 71.105469 101.984375 77.792969 98.71875 83.566406 L 77.375 62.222656 L 65.871094 38.191406 L 65.871094 74.191406 L 87.710938 96.03125 C 81.089844 100.945312 72.878906 103.855469 64 103.855469 C 55.121094 103.855469 46.910156 100.945312 40.289062 96.03125 L 62.128906 74.191406 L 62.128906 38.191406 L 50.625 62.222656 L 29.28125 83.566406 C 26.015625 77.792969 24.144531 71.105469 24.144531 64 C 24.144531 52.59375 28.945312 42.304688 36.625 35.039062 L 25.855469 22.511719 C 14.65625 32.816406 7.632812 47.585938 7.632812 64 C 7.632812 95.136719 32.863281 120.367188 64 120.367188 C 95.121094 120.367188 120.367188 95.136719 120.367188 64 C 120.367188 47.585938 113.34375 32.816406 102.160156 22.511719 Z M 102.160156 22.511719 "/>
</g>
</svg>
