<?xml version="1.0" encoding="UTF-8"?>
<svg xmlns="http://www.w3.org/2000/svg" xmlns:xlink="http://www.w3.org/1999/xlink" width="128px" height="128px" viewBox="0 0 128 128" version="1.1">
<defs>
<filter id="alpha" filterUnits="objectBoundingBox" x="0%" y="0%" width="100%" height="100%">
  <feColorMatrix type="matrix" in="SourceGraphic" values="0 0 0 0 1 0 0 0 0 1 0 0 0 0 1 0 0 0 1 0"/>
</filter>
<mask id="mask0">
  <g filter="url(#alpha)">
<rect x="0" y="0" width="128" height="128" style="fill:rgb(0%,0%,0%);fill-opacity:0.2;stroke:none;"/>
  </g>
</mask>
<clipPath id="clip1">
  <rect x="0" y="0" width="128" height="128"/>
</clipPath>
<g id="surface5" clip-path="url(#clip1)">
<path style=" stroke:none;fill-rule:nonzero;fill:rgb(0%,0%,0%);fill-opacity:1;" d="M 8.101562 64 C 8.078125 64.667969 8 65.324219 8 66 C 8 97.023438 32.972656 122 64 122 C 95.023438 122 120 97.023438 120 66 C 120 65.324219 119.917969 64.667969 119.898438 64 C 118.84375 94.085938 94.347656 118 64 118 C 33.648438 118 9.15625 94.085938 8.097656 64 Z M 8.101562 64 "/>
</g>
<mask id="mask1">
  <g filter="url(#alpha)">
<rect x="0" y="0" width="128" height="128" style="fill:rgb(0%,0%,0%);fill-opacity:0.2;stroke:none;"/>
  </g>
</mask>
<clipPath id="clip2">
  <rect x="0" y="0" width="128" height="128"/>
</clipPath>
<g id="surface8" clip-path="url(#clip2)">
<path style=" stroke:none;fill-rule:nonzero;fill:rgb(0%,0%,0%);fill-opacity:1;" d="M 80 30 C 68.953125 30 60 38.953125 60 50 L 46.777344 68.125 C 46.1875 68.046875 45.59375 68.007812 45 68 C 41.300781 68.007812 37.734375 69.378906 34.984375 71.855469 L 11.058594 62.152344 C 10.390625 61.882812 9.339844 61.515625 8.214844 61.167969 C 8.078125 62.761719 8 64.371094 8 66 C 8 68.753906 8.203125 71.453125 8.582031 74.097656 L 30.007812 82.789062 C 30.003906 82.859375 30.003906 82.929688 30 83 C 30 91.285156 36.714844 98 45 98 C 53.285156 98 60 91.285156 60 83 C 59.996094 82.753906 59.984375 82.507812 59.964844 82.261719 L 76.886719 69.746094 C 77.917969 69.910156 78.957031 69.996094 80 70 C 91.046875 70 100 61.046875 100 50 C 100 38.953125 91.046875 30 80 30 Z M 80 36 C 87.730469 36 94 42.269531 94 50 C 94 57.730469 87.730469 64 80 64 C 72.269531 64 66 57.730469 66 50 C 66 42.269531 72.269531 36 80 36 Z M 80 40 C 74.476562 40 70 44.476562 70 50 C 70 55.523438 74.476562 60 80 60 C 85.523438 60 90 55.523438 90 50 C 90 44.476562 85.523438 40 80 40 Z M 45 74 C 49.96875 74 54 78.03125 54 83 C 54 87.96875 49.96875 92 45 92 C 40.933594 91.996094 37.375 89.269531 36.316406 85.34375 L 41.761719 87.554688 C 44.84375 88.804688 48.328125 87.332031 49.578125 84.25 C 50.828125 81.167969 49.355469 77.683594 46.273438 76.433594 L 41.765625 74.605469 C 42.796875 74.207031 43.894531 74 45 74 Z M 45 74 "/>
</g>
<mask id="mask2">
  <g filter="url(#alpha)">
<rect x="0" y="0" width="128" height="128" style="fill:rgb(0%,0%,0%);fill-opacity:0.12;stroke:none;"/>
  </g>
</mask>
<clipPath id="clip3">
  <rect x="0" y="0" width="128" height="128"/>
</clipPath>
<g id="surface11" clip-path="url(#clip3)">
<path style=" stroke:none;fill-rule:nonzero;fill:rgb(100%,100%,100%);fill-opacity:1;" d="M 64 8 C 32.976562 8 8 32.976562 8 64 C 8 64.21875 8.019531 64.433594 8.03125 64.648438 C 8.746094 34.257812 33.429688 10 64 10 C 94.570312 10 119.253906 34.257812 119.96875 64.648438 C 119.980469 64.433594 120 64.21875 120 64 C 120 32.976562 95.023438 8 64 8 Z M 64 8 "/>
</g>
</defs>
<g id="surface1">
<use xlink:href="#surface5" mask="url(#mask0)"/>
<path style=" stroke:none;fill-rule:nonzero;fill:rgb(19.607843%,29.411766%,42.352942%);fill-opacity:1;" d="M 120 64 C 120 32.976562 95.023438 8 64 8 C 32.972656 8 8 32.976562 8 64 C 8 95.023438 32.972656 120 64 120 C 95.023438 120 120 95.023438 120 64 Z M 120 64 "/>
<use xlink:href="#surface8" mask="url(#mask1)"/>
<use xlink:href="#surface11" mask="url(#mask2)"/>
<path style=" stroke:none;fill-rule:nonzero;fill:rgb(100%,100%,100%);fill-opacity:1;" d="M 45 66 C 36.714844 66 30 72.714844 30 81 C 30 89.285156 36.714844 96 45 96 C 53.285156 96 60 89.285156 60 81 C 60 72.714844 53.285156 66 45 66 Z M 45 72 C 49.96875 72 54 76.03125 54 81 C 54 85.96875 49.96875 90 45 90 C 40.03125 90 36 85.96875 36 81 C 36 76.03125 40.03125 72 45 72 Z M 45 72 "/>
<path style=" stroke:none;fill-rule:nonzero;fill:rgb(100%,100%,100%);fill-opacity:1;" d="M 45.535156 67.828125 L 62.539062 44.523438 L 66.933594 58.390625 L 82.3125 63.730469 L 58.648438 81.234375 L 53.191406 73.324219 Z M 45.535156 67.828125 "/>
<path style=" stroke:none;fill-rule:nonzero;fill:rgb(100%,100%,100%);fill-opacity:1;" d="M 80 28 C 68.953125 28 60 36.953125 60 48 C 60 59.046875 68.953125 68 80 68 C 91.046875 68 100 59.046875 100 48 C 100 36.953125 91.046875 28 80 28 Z M 80 34 C 87.730469 34 94 40.269531 94 48 C 94 55.730469 87.730469 62 80 62 C 72.269531 62 66 55.730469 66 48 C 66 40.269531 72.269531 34 80 34 Z M 80 34 "/>
<path style=" stroke:none;fill-rule:nonzero;fill:rgb(100%,100%,100%);fill-opacity:1;" d="M 90 48 C 90 53.523438 85.523438 58 80 58 C 74.476562 58 70 53.523438 70 48 C 70 42.476562 74.476562 38 80 38 C 85.523438 38 90 42.476562 90 48 Z M 90 48 "/>
<path style=" stroke:none;fill-rule:nonzero;fill:rgb(100%,100%,100%);fill-opacity:1;" d="M 8.214844 59.167969 C 8.078125 60.761719 8 62.371094 8 64 C 8 66.753906 8.203125 69.453125 8.582031 72.097656 L 41.761719 85.554688 C 44.84375 86.804688 48.328125 85.332031 49.578125 82.25 C 50.828125 79.167969 49.355469 75.683594 46.273438 74.433594 L 11.058594 60.152344 C 10.390625 59.882812 9.339844 59.515625 8.214844 59.167969 Z M 8.214844 59.167969 "/>
</g>
</svg>
