<?xml version="1.0" encoding="UTF-8"?>
<svg xmlns="http://www.w3.org/2000/svg" xmlns:xlink="http://www.w3.org/1999/xlink" width="128px" height="128px" viewBox="0 0 128 128" version="1.1">
<defs>
<filter id="alpha" filterUnits="objectBoundingBox" x="0%" y="0%" width="100%" height="100%">
  <feColorMatrix type="matrix" in="SourceGraphic" values="0 0 0 0 1 0 0 0 0 1 0 0 0 0 1 0 0 0 1 0"/>
</filter>
<mask id="mask0">
  <g filter="url(#alpha)">
<rect x="0" y="0" width="128" height="128" style="fill:rgb(0%,0%,0%);fill-opacity:0.1;stroke:none;"/>
  </g>
</mask>
<clipPath id="clip1">
  <rect x="0" y="0" width="128" height="128"/>
</clipPath>
<g id="surface5" clip-path="url(#clip1)">
<path style=" stroke:none;fill-rule:nonzero;fill:rgb(0%,0%,0%);fill-opacity:1;" d="M 21 16 L 107 16 C 109.761719 16 112 18.238281 112 21 L 112 79 C 112 81.761719 109.761719 84 107 84 L 21 84 C 18.238281 84 16 81.761719 16 79 L 16 21 C 16 18.238281 18.238281 16 21 16 Z M 21 16 "/>
</g>
<mask id="mask1">
  <g filter="url(#alpha)">
<rect x="0" y="0" width="128" height="128" style="fill:rgb(0%,0%,0%);fill-opacity:0.1;stroke:none;"/>
  </g>
</mask>
<clipPath id="clip2">
  <rect x="0" y="0" width="128" height="128"/>
</clipPath>
<g id="surface8" clip-path="url(#clip2)">
<path style=" stroke:none;fill-rule:nonzero;fill:rgb(0%,0%,0%);fill-opacity:1;" d="M 21 28 L 107 28 C 109.761719 28 112 30.238281 112 33 L 112 91 C 112 93.761719 109.761719 96 107 96 L 21 96 C 18.238281 96 16 93.761719 16 91 L 16 33 C 16 30.238281 18.238281 28 21 28 Z M 21 28 "/>
</g>
<mask id="mask2">
  <g filter="url(#alpha)">
<rect x="0" y="0" width="128" height="128" style="fill:rgb(0%,0%,0%);fill-opacity:0.2;stroke:none;"/>
  </g>
</mask>
<clipPath id="clip3">
  <rect x="0" y="0" width="128" height="128"/>
</clipPath>
<g id="surface11" clip-path="url(#clip3)">
<path style=" stroke:none;fill-rule:nonzero;fill:rgb(0%,0%,0%);fill-opacity:1;" d="M 14 44 L 114 44 C 117.3125 44 120 46.6875 120 50 L 120 118 C 120 121.3125 117.3125 124 114 124 L 14 124 C 10.6875 124 8 121.3125 8 118 L 8 50 C 8 46.6875 10.6875 44 14 44 Z M 14 44 "/>
</g>
<mask id="mask3">
  <g filter="url(#alpha)">
<rect x="0" y="0" width="128" height="128" style="fill:rgb(0%,0%,0%);fill-opacity:0.2;stroke:none;"/>
  </g>
</mask>
<clipPath id="clip4">
  <rect x="0" y="0" width="128" height="128"/>
</clipPath>
<g id="surface14" clip-path="url(#clip4)">
<path style=" stroke:none;fill-rule:nonzero;fill:rgb(0%,0%,0%);fill-opacity:1;" d="M 48 76 L 80 76 C 82.210938 76 84 77.789062 84 80 L 84 84 C 84 86.210938 82.210938 88 80 88 L 48 88 C 45.789062 88 44 86.210938 44 84 L 44 80 C 44 77.789062 45.789062 76 48 76 Z M 48 76 "/>
</g>
<mask id="mask4">
  <g filter="url(#alpha)">
<rect x="0" y="0" width="128" height="128" style="fill:rgb(0%,0%,0%);fill-opacity:0.1;stroke:none;"/>
  </g>
</mask>
<clipPath id="clip5">
  <rect x="0" y="0" width="128" height="128"/>
</clipPath>
<g id="surface17" clip-path="url(#clip5)">
<path style=" stroke:none;fill-rule:nonzero;fill:rgb(100%,100%,100%);fill-opacity:1;" d="M 21 6 C 18.230469 6 16 8.230469 16 11 L 16 13 C 16 10.230469 18.230469 8 21 8 L 107 8 C 109.769531 8 112 10.230469 112 13 L 112 11 C 112 8.230469 109.769531 6 107 6 Z M 21 6 "/>
</g>
<mask id="mask5">
  <g filter="url(#alpha)">
<rect x="0" y="0" width="128" height="128" style="fill:rgb(0%,0%,0%);fill-opacity:0.1;stroke:none;"/>
  </g>
</mask>
<clipPath id="clip6">
  <rect x="0" y="0" width="128" height="128"/>
</clipPath>
<g id="surface20" clip-path="url(#clip6)">
<path style=" stroke:none;fill-rule:nonzero;fill:rgb(100%,100%,100%);fill-opacity:1;" d="M 21 18 C 18.230469 18 16 20.230469 16 23 L 16 25 C 16 22.230469 18.230469 20 21 20 L 107 20 C 109.769531 20 112 22.230469 112 25 L 112 23 C 112 20.230469 109.769531 18 107 18 Z M 21 18 "/>
</g>
<mask id="mask6">
  <g filter="url(#alpha)">
<rect x="0" y="0" width="128" height="128" style="fill:rgb(0%,0%,0%);fill-opacity:0.1;stroke:none;"/>
  </g>
</mask>
<clipPath id="clip7">
  <rect x="0" y="0" width="128" height="128"/>
</clipPath>
<g id="surface23" clip-path="url(#clip7)">
<path style=" stroke:none;fill-rule:nonzero;fill:rgb(100%,100%,100%);fill-opacity:1;" d="M 21 30 C 18.230469 30 16 32.230469 16 35 L 16 37 C 16 34.230469 18.230469 32 21 32 L 107 32 C 109.769531 32 112 34.230469 112 37 L 112 35 C 112 32.230469 109.769531 30 107 30 Z M 21 30 "/>
</g>
</defs>
<g id="surface1">
<path style=" stroke:none;fill-rule:nonzero;fill:rgb(34.509805%,58.431375%,86.274511%);fill-opacity:1;" d="M 21 6 L 107 6 C 109.761719 6 112 8.238281 112 11 L 112 69 C 112 71.761719 109.761719 74 107 74 L 21 74 C 18.238281 74 16 71.761719 16 69 L 16 11 C 16 8.238281 18.238281 6 21 6 Z M 21 6 "/>
<use xlink:href="#surface5" mask="url(#mask0)"/>
<path style=" stroke:none;fill-rule:nonzero;fill:rgb(53.725493%,87.843138%,34.509805%);fill-opacity:1;" d="M 21 18 L 107 18 C 109.761719 18 112 20.238281 112 23 L 112 81 C 112 83.761719 109.761719 86 107 86 L 21 86 C 18.238281 86 16 83.761719 16 81 L 16 23 C 16 20.238281 18.238281 18 21 18 Z M 21 18 "/>
<use xlink:href="#surface8" mask="url(#mask1)"/>
<path style=" stroke:none;fill-rule:nonzero;fill:rgb(100%,80.392158%,32.941177%);fill-opacity:1;" d="M 21 30 L 107 30 C 109.761719 30 112 32.238281 112 35 L 112 93 C 112 95.761719 109.761719 98 107 98 L 21 98 C 18.238281 98 16 95.761719 16 93 L 16 35 C 16 32.238281 18.238281 30 21 30 Z M 21 30 "/>
<use xlink:href="#surface11" mask="url(#mask2)"/>
<path style=" stroke:none;fill-rule:nonzero;fill:rgb(55.686277%,55.686277%,55.686277%);fill-opacity:1;" d="M 14 42 L 114 42 C 117.3125 42 120 44.6875 120 48 L 120 116 C 120 119.3125 117.3125 122 114 122 L 14 122 C 10.6875 122 8 119.3125 8 116 L 8 48 C 8 44.6875 10.6875 42 14 42 Z M 14 42 "/>
<use xlink:href="#surface14" mask="url(#mask3)"/>
<path style=" stroke:none;fill-rule:nonzero;fill:rgb(92.54902%,92.54902%,92.54902%);fill-opacity:1;" d="M 48 74 L 80 74 C 82.210938 74 84 75.789062 84 78 L 84 82 C 84 84.210938 82.210938 86 80 86 L 48 86 C 45.789062 86 44 84.210938 44 82 L 44 78 C 44 75.789062 45.789062 74 48 74 Z M 48 74 "/>
<use xlink:href="#surface17" mask="url(#mask4)"/>
<use xlink:href="#surface20" mask="url(#mask5)"/>
<use xlink:href="#surface23" mask="url(#mask6)"/>
</g>
</svg>
