<?xml version="1.0" encoding="UTF-8" standalone="no"?>
<svg
   xmlns:dc="http://purl.org/dc/elements/1.1/"
   xmlns:cc="http://creativecommons.org/ns#"
   xmlns:rdf="http://www.w3.org/1999/02/22-rdf-syntax-ns#"
   xmlns:svg="http://www.w3.org/2000/svg"
   xmlns="http://www.w3.org/2000/svg"
   xmlns:sodipodi="http://sodipodi.sourceforge.net/DTD/sodipodi-0.dtd"
   xmlns:inkscape="http://www.inkscape.org/namespaces/inkscape"
   width="512px"
   height="512px"
   viewBox="0 0 512 512"
   version="1.1"
   id="svg5"
   sodipodi:docname="epic.svg"
   inkscape:version="0.92.4 5da689c313, 2019-01-14">
  <metadata
     id="metadata11">
    <rdf:RDF>
      <cc:Work
         rdf:about="">
        <dc:format>image/svg+xml</dc:format>
        <dc:type
           rdf:resource="http://purl.org/dc/dcmitype/StillImage" />
        <dc:title></dc:title>
      </cc:Work>
    </rdf:RDF>
  </metadata>
  <defs
     id="defs9">
    <clipPath
       id="clipPath20"
       clipPathUnits="userSpaceOnUse">
      <path
         id="path18"
         d="m 0,790.889 900,0 L 900,0 0,0 Z" />
    </clipPath>
  </defs>
  <sodipodi:namedview
     pagecolor="#ffffff"
     bordercolor="#666666"
     borderopacity="1"
     objecttolerance="10"
     gridtolerance="10"
     guidetolerance="10"
     inkscape:pageopacity="0"
     inkscape:pageshadow="2"
     inkscape:window-width="1920"
     inkscape:window-height="1080"
     id="namedview7"
     showgrid="false"
     inkscape:zoom="1.84375"
     inkscape:cx="151.95839"
     inkscape:cy="78.809239"
     inkscape:window-x="1024"
     inkscape:window-y="170"
     inkscape:window-maximized="1"
     inkscape:current-layer="svg5" />
  <g
     id="surface1">
    <path
       style=" stroke:none;fill-rule:evenodd;fill:rgb(18.431373%,17.647059%,18.039216%);fill-opacity:1;"
       d="M 465.625 0 L 46.507812 0 C 12.535156 0 0 10.800781 0 40.082031 L 0 393.390625 C 0 396.703125 0.15625 399.78125 0.496094 402.632812 C 1.269531 409.023438 1.414062 415.21875 8.3125 422.269531 C 8.988281 422.960938 16.03125 427.476562 16.03125 427.476562 C 19.820312 429.078125 22.40625 430.257812 26.679688 431.738281 L 233.058594 506.230469 C 243.773438 510.460938 248.253906 512.109375 256.035156 511.976562 C 256.046875 511.976562 256.054688 511.976562 256.066406 511.976562 C 256.074219 511.976562 256.085938 511.976562 256.097656 511.976562 C 263.878906 512.109375 268.359375 510.460938 279.074219 506.230469 L 485.449219 431.738281 C 489.722656 430.257812 492.308594 429.078125 496.101562 427.476562 C 496.101562 427.476562 503.144531 422.960938 503.816406 422.269531 C 510.71875 415.21875 510.863281 409.023438 511.636719 402.632812 C 511.976562 399.78125 512.132812 396.703125 512.132812 393.390625 L 512.132812 40.082031 C 512.132812 10.800781 499.59375 0 465.625 0 "
       id="path2" />
  </g>
  <g
     style="display:inline;fill:#ffffff"
     transform="matrix(1.0401323,0,0,-1.0473865,-217.02874,635.6163)"
     id="g10">
    <g
       inkscape:label="Letras"
       id="layer1"
       inkscape:groupmode="layer"
       style="fill:#ffffff" />
    <g
       inkscape:label="Brasao"
       id="layer2"
       inkscape:groupmode="layer"
       style="fill:#ffffff" />
    <g
       style="display:inline;fill:#ffffff"
       id="g14">
      <g
         clip-path="url(#clipPath20)"
         id="g16"
         style="fill:#ffffff">
        <g
           style="fill:#ffffff;stroke:#000000;stroke-opacity:1"
           transform="translate(649.8358,676.9377)"
           id="g22" />
        <g
           style="fill:#ffffff"
           transform="translate(312.9946,481.1594)"
           id="g30" />
        <g
           id="g4573"
           style="fill:#ffffff">
          <g
             id="g26"
             transform="matrix(1,0,0,0.93361686,626.78098,259.62747)"
             style="fill:#ffffff">
            <path
               inkscape:connector-curvature="0"
               d="m 0,0 -0.09,-0.897 -0.089,-0.985 -0.18,-0.897 -0.268,-0.896 -0.174,-0.807 -0.27,-0.897 -0.358,-0.807 -0.359,-0.718 -0.353,-0.806 -0.448,-0.717 -0.448,-0.718 -0.533,-0.717 -0.449,-0.717 -0.532,-0.627 -0.628,-0.628 -0.533,-0.538 -0.716,-0.628 -0.623,-0.538 -0.717,-0.538 -0.712,-0.442 -0.712,-0.538 -0.807,-0.448 -0.802,-0.359 -0.801,-0.448 -0.897,-0.359 -0.891,-0.359 -0.891,-0.268 -0.891,-0.27 -0.807,-0.268 -0.891,-0.18 -0.802,-0.179 -0.801,-0.179 -0.897,-0.18 -0.892,-0.089 -0.801,-0.09 -0.897,-0.09 -0.98,-0.09 -0.892,-0.089 h -0.891 -0.981 -0.986 -0.891 l -0.892,0.089 h -0.98 l -0.892,0.09 -0.896,0.09 -0.981,0.09 -0.891,0.179 -0.891,0.09 -0.897,0.179 -0.892,0.179 -0.891,0.18 -0.891,0.179 -0.896,0.268 -0.802,0.18 -0.891,0.269 -0.892,0.269 -0.806,0.359 -0.891,0.269 -0.802,0.268 -0.892,0.359 -0.806,0.359 -0.802,0.359 -0.802,0.442 -0.806,0.359 -0.802,0.449 -0.712,0.447 -0.807,0.449 -0.712,0.448 -0.717,0.448 -0.712,0.538 -0.712,0.538 -0.717,0.538 -0.713,0.538 -0.627,0.538 -0.712,0.627 0.538,0.717 0.622,0.628 0.538,0.718 0.623,0.717 0.538,0.627 0.532,0.717 0.628,0.718 0.532,0.627 0.628,0.717 0.533,0.628 0.627,0.717 0.533,0.718 0.538,0.627 0.622,0.717 0.538,0.718 0.622,0.627 0.538,0.717 0.712,-0.538 0.802,-0.538 0.717,-0.538 0.802,-0.538 0.717,-0.448 0.802,-0.537 0.711,-0.449 0.808,-0.358 0.711,-0.449 0.802,-0.359 0.807,-0.358 0.801,-0.359 0.803,-0.269 0.806,-0.358 0.891,-0.269 0.892,-0.269 0.801,-0.269 0.897,-0.18 0.891,-0.179 0.891,-0.179 0.981,-0.09 0.896,-0.179 h 0.892 l 0.98,-0.089 h 0.892 1.07 l 0.981,0.089 0.897,0.179 0.801,0.18 0.802,0.179 0.717,0.269 0.623,0.358 0.717,0.538 0.532,0.628 0.359,0.718 0.27,0.806 0.088,0.897 v 0.179 l -0.088,1.076 -0.359,0.897 -0.449,0.627 -0.622,0.538 -0.718,0.538 -0.712,0.358 -0.801,0.359 -0.897,0.359 -1.07,0.447 -0.623,0.18 -0.711,0.179 -0.807,0.27 -0.802,0.179 -0.891,0.269 -0.897,0.179 -0.98,0.269 -0.892,0.179 -0.981,0.269 -0.891,0.179 -0.897,0.269 -0.89,0.18 -0.892,0.269 -0.807,0.268 -0.89,0.18 -0.803,0.269 -0.801,0.269 -0.807,0.269 -0.981,0.359 -0.891,0.359 -0.892,0.358 -0.896,0.359 -0.801,0.448 -0.892,0.448 -0.717,0.448 -0.802,0.448 -0.712,0.538 -0.717,0.448 -0.622,0.539 -0.627,0.627 -0.623,0.628 -0.538,0.628 -0.532,0.627 -0.449,0.627 -0.443,0.718 -0.448,0.806 -0.359,0.622 -0.269,0.718 -0.263,0.807 -0.269,0.717 -0.18,0.897 -0.179,0.807 -0.09,0.896 -0.089,0.897 -0.09,0.985 v 0.987 0.179 0.897 l 0.09,0.896 0.089,0.807 0.09,0.897 0.179,0.806 0.18,0.807 0.269,0.808 0.179,0.806 0.353,0.807 0.359,0.807 0.358,0.806 0.444,0.808 0.447,0.806 0.533,0.718 0.539,0.717 0.622,0.717 0.627,0.627 0.623,0.718 0.717,0.628 0.622,0.448 0.717,0.538 0.713,0.538 0.711,0.448 0.807,0.448 0.802,0.359 0.801,0.448 0.807,0.358 0.891,0.27 0.891,0.358 0.807,0.269 0.712,0.18 0.803,0.179 0.806,0.179 0.891,0.179 0.802,0.18 0.891,0.089 0.897,0.09 0.891,0.09 0.891,0.089 h 0.891 0.986 0.982 0.98 l 0.981,-0.089 0.981,-0.09 h 0.891 l 0.986,-0.09 0.891,-0.179 0.981,-0.09 0.892,-0.179 0.807,-0.179 0.891,-0.179 0.891,-0.18 0.802,-0.179 0.896,-0.269 0.802,-0.269 0.802,-0.18 0.896,-0.358 0.802,-0.269 0.801,-0.358 0.802,-0.359 0.896,-0.359 0.802,-0.448 0.712,-0.359 0.807,-0.448 0.802,-0.448 0.712,-0.449 0.806,-0.538 0.713,-0.447 0.717,-0.539 0.712,-0.538 0.711,-0.537 L -2.32,39.083 -2.768,38.366 -3.301,37.649 -3.839,36.931 -4.371,36.125 -4.82,35.408 -5.358,34.69 -5.891,33.973 -6.338,33.256 -6.872,32.538 -7.409,31.821 -7.858,31.104 -8.39,30.297 -8.929,29.58 l -0.532,-0.717 -0.448,-0.717 -0.533,-0.717 -0.717,0.537 -0.801,0.449 -0.713,0.448 -0.717,0.538 -0.801,0.358 -0.718,0.449 -0.801,0.359 -0.712,0.358 -0.807,0.359 -0.712,0.358 -0.801,0.269 -0.717,0.359 -0.982,0.268 -0.891,0.27 -0.891,0.268 -0.897,0.18 -0.891,0.179 -0.891,0.18 -0.891,0.09 -0.897,0.089 -0.801,0.09 h -0.892 -1.07 l -0.981,-0.179 -0.897,-0.18 -0.801,-0.179 -0.712,-0.359 -0.628,-0.358 -0.802,-0.718 -0.538,-0.807 -0.352,-0.807 -0.091,-0.896 v -0.18 l 0.091,-1.165 0.442,-0.986 0.359,-0.538 0.622,-0.628 0.807,-0.448 0.712,-0.448 0.891,-0.359 0.986,-0.359 1.071,-0.358 0.712,-0.179 0.712,-0.269 0.807,-0.179 0.801,-0.269 0.891,-0.18 0.987,-0.269 0.981,-0.268 0.981,-0.27 0.98,-0.179 0.891,-0.269 0.981,-0.269 0.897,-0.179 0.892,-0.269 0.891,-0.269 0.801,-0.269 0.897,-0.269 0.802,-0.269 0.801,-0.269 0.986,-0.353 0.891,-0.449 0.891,-0.358 0.892,-0.448 0.807,-0.449 0.802,-0.448 0.711,-0.448 0.717,-0.538 0.713,-0.448 0.712,-0.628 0.717,-0.627 0.622,-0.718 L -3.481,13 -2.948,12.282 -2.41,11.476 -1.967,10.759 -1.518,9.951 -1.16,9.234 -0.891,8.428 -0.627,7.621 -0.448,6.814 -0.269,5.917 -0.09,5.02 0,4.124 0.09,3.138 V 2.152 1.973 0.986 Z m -62.594,-17.926 h -0.896 -0.891 -0.891 -0.891 -0.897 -0.892 -0.89 -0.892 -0.986 -0.891 -0.891 -0.891 -0.898 -0.89 -0.892 -0.891 -0.897 -0.891 -0.891 -0.891 -0.892 -0.896 -0.891 -0.891 -0.892 -0.897 -0.891 -0.891 -0.981 -0.896 -0.892 -0.891 -0.891 -0.896 -0.892 -0.891 -0.892 -0.896 -0.891 -0.891 -0.892 -0.897 -0.89 -0.892 -0.891 -0.896 -0.892 -0.981 -0.891 -0.891 -0.897 -0.891 -0.892 -0.89 -0.896 -0.892 -0.891 v 0.897 0.897 0.896 0.892 0.897 0.896 0.896 0.896 0.897 0.897 0.896 0.897 0.897 0.896 0.897 0.896 0.896 0.897 0.807 0.897 0.896 0.896 0.897 0.897 0.896 0.897 0.897 0.896 0.896 0.896 0.897 0.897 0.896 0.897 0.897 0.896 0.897 0.896 0.896 0.897 0.896 0.892 0.896 0.897 0.897 0.896 0.896 0.897 0.896 0.897 0.897 0.896 0.897 0.896 0.807 0.896 0.897 0.897 0.896 0.897 0.896 0.897 0.896 0.897 0.896 0.897 0.897 0.896 0.896 0.897 0.896 0.897 0.897 h 0.891 0.892 0.896 0.89 0.892 0.891 0.897 0.891 0.891 0.892 0.896 0.892 0.89 0.892 0.806 0.892 0.891 0.892 0.896 0.891 0.891 0.892 0.896 0.891 0.891 0.892 0.897 0.891 0.891 0.891 0.897 0.892 0.89 0.891 0.892 0.897 0.891 0.891 0.891 0.897 0.891 0.891 0.891 0.808 0.891 0.891 0.892 0.896 0.891 0.891 0.891 0.897 0.891 0.891 0.892 0.896 0.892 0.891 v -0.897 -0.807 -0.896 -0.897 -0.896 -0.807 -0.897 -0.897 -0.806 -0.897 -0.896 -0.808 -0.896 -0.896 -0.897 -0.807 -0.897 h -0.891 -0.892 -0.896 -0.892 -0.891 -0.891 -0.807 -0.891 -0.891 -0.892 -0.896 -0.891 -0.892 -0.891 -0.897 -0.891 -0.891 -0.891 -0.897 -0.801 -0.892 -0.891 -0.897 -0.89 -0.892 -0.891 -0.897 -0.891 -0.891 -0.891 -0.897 -0.892 -0.801 -0.891 -0.896 -0.892 -0.891 -0.892 -0.896 V 31.642 30.746 29.85 28.953 28.056 27.249 26.353 25.456 24.56 23.663 22.767 21.87 h 0.896 0.892 0.891 0.892 0.896 0.891 0.891 0.892 0.807 0.891 0.891 0.891 0.897 0.891 0.892 0.89 0.897 0.891 0.892 0.891 0.896 0.891 0.892 0.892 0.896 0.891 0.802 0.891 0.896 0.892 0.891 0.891 0.896 0.892 0.891 V 20.974 20.167 19.275 18.379 17.572 16.676 15.779 14.972 14.075 13.179 12.282 11.476 10.58 9.683 8.875 7.979 h -0.891 -0.892 -0.896 -0.891 -0.891 -0.892 -0.896 -0.891 -0.802 -0.891 -0.896 -0.892 -0.892 -0.891 -0.896 -0.891 -0.892 -0.891 -0.897 -0.89 -0.892 -0.891 -0.897 -0.891 -0.891 -0.891 -0.807 -0.892 -0.891 -0.891 -0.896 -0.892 -0.891 -0.892 -0.896 V 7.083 6.096 5.2 4.303 3.317 2.42 1.524 0.538 -0.358 -1.255 -2.241 -3.137 h 0.896 0.892 0.891 0.892 0.896 0.891 0.891 0.892 0.896 0.981 0.891 0.891 0.897 0.892 0.891 0.891 0.896 0.892 0.891 0.891 0.891 0.897 0.891 0.892 0.89 0.898 0.891 0.891 0.891 0.986 0.892 0.89 0.892 0.897 0.891 0.891 0.891 0.896 0.892 v -0.897 -0.807 -0.897 -0.896 -0.897 -0.807 -0.896 -0.896 -0.808 -0.896 -0.896 -0.808 -0.891 -0.896 -0.896 -0.808 -0.897 z m -65.214,0 h -0.891 -0.892 -0.985 -0.891 -0.892 -0.891 -0.897 -0.891 -0.981 -0.891 -0.892 -0.896 -0.891 -0.891 -0.981 -0.897 -0.891 -0.892 v 0.897 0.897 0.896 0.897 0.902 0.896 0.897 0.897 0.896 0.896 0.897 0.901 0.897 0.897 0.896 0.897 0.902 0.897 0.896 0.896 0.897 0.896 0.902 0.896 0.897 0.897 0.896 0.897 0.902 0.897 0.896 0.896 0.896 0.897 0.902 0.896 0.897 0.896 0.897 0.902 0.896 0.897 0.897 l -0.447,-0.717 -0.533,-0.813 -0.449,-0.717 -0.532,-0.718 -0.448,-0.806 -0.539,-0.718 -0.442,-0.717 -0.449,-0.812 -0.532,-0.717 -0.449,-0.717 -0.537,-0.718 -0.443,-0.812 -0.538,-0.717 -0.443,-0.717 -0.449,-0.807 -0.538,-0.722 -0.443,-0.718 -0.538,-0.806 -0.442,-0.718 -0.538,-0.717 -0.443,-0.812 -0.449,-0.718 -0.537,-0.717 -0.443,-0.807 -0.538,-0.722 -0.443,-0.717 -0.538,-0.718 -0.449,-0.806 -0.443,-0.722 -0.537,-0.718 -0.443,-0.807 -0.538,-0.717 -0.448,-0.717 -0.533,-0.813 -0.448,-0.717 h -0.354 l -0.537,0.807 -0.449,0.723 -0.533,0.807 -0.448,0.717 -0.533,0.806 -0.448,0.723 -0.532,0.807 -0.449,0.718 -0.538,0.806 -0.443,0.717 -0.538,0.813 -0.442,0.717 -0.538,0.807 -0.449,0.717 -0.532,0.812 -0.449,0.717 -0.532,0.807 -0.538,0.717 -0.448,0.812 -0.533,0.717 -0.448,0.807 -0.533,0.717 -0.448,0.813 -0.533,0.717 -0.448,0.807 -0.538,0.717 -0.443,0.807 -0.538,0.723 -0.443,0.806 -0.538,0.718 -0.448,0.807 -0.532,0.716 -0.45,0.813 -0.532,0.717 V 19.587 18.69 17.793 16.892 15.995 15.099 14.202 13.305 12.404 11.507 10.7 9.804 8.907 8.011 7.109 6.212 5.316 4.42 3.523 2.626 1.725 0.828 -0.069 -0.965 -1.862 -2.758 -3.66 v -0.896 -0.897 -0.896 -0.897 -0.901 -0.808 -0.896 -0.896 -0.897 -0.897 -0.896 -0.902 -0.897 -0.896 -0.897 -0.897 h -0.891 -0.896 -0.892 -0.891 -0.891 -0.896 -0.892 -0.891 -0.892 -0.896 -0.891 -0.892 -0.891 -0.896 -0.891 -0.892 -0.892 -0.896 -0.891 v 0.897 0.897 0.896 0.892 0.897 0.896 0.896 0.896 0.897 0.897 0.896 0.897 0.897 0.896 0.897 0.896 0.896 0.897 0.807 0.897 0.896 0.896 0.897 0.897 0.896 0.897 0.897 0.896 0.896 0.896 0.897 0.897 0.896 0.897 0.897 0.896 0.897 0.896 0.896 0.897 0.896 0.892 0.896 0.897 0.897 0.896 0.896 0.897 0.896 0.897 0.897 0.896 0.897 0.896 0.807 0.896 0.897 0.897 0.896 0.897 0.896 0.897 0.896 0.897 0.896 0.897 0.897 0.896 0.896 0.897 0.896 0.897 0.897 h 0.891 0.896 0.803 0.89 0.892 0.896 0.802 0.891 0.897 0.891 0.802 0.891 0.897 0.891 0.801 0.891 0.897 0.892 0.801 0.891 0.897 l 0.443,-0.718 0.448,-0.806 0.532,-0.712 0.449,-0.807 0.448,-0.717 0.443,-0.808 0.448,-0.711 0.534,-0.808 0.447,-0.717 0.449,-0.717 0.443,-0.801 0.448,-0.718 0.533,-0.806 0.448,-0.718 0.448,-0.801 0.443,-0.717 0.538,-0.717 0.449,-0.803 0.442,-0.716 0.448,-0.807 0.444,-0.718 0.538,-0.801 0.448,-0.718 0.442,-0.806 0.449,-0.712 0.443,-0.717 0.538,-0.807 0.448,-0.718 0.443,-0.807 0.448,-0.712 0.443,-0.807 0.539,-0.717 0.448,-0.801 0.443,-0.718 0.448,0.718 0.448,0.801 0.533,0.717 0.447,0.807 0.444,0.712 0.448,0.807 0.533,0.718 0.448,0.807 0.449,0.717 0.442,0.712 0.538,0.806 0.443,0.718 0.449,0.801 0.447,0.718 0.533,0.807 0.448,0.716 0.449,0.803 0.442,0.717 0.45,0.717 0.532,0.801 0.448,0.718 0.448,0.806 0.444,0.718 0.537,0.801 0.444,0.717 0.447,0.717 0.449,0.808 0.532,0.711 0.449,0.808 0.442,0.717 0.449,0.807 0.538,0.712 0.443,0.806 0.448,0.718 h 0.891 0.892 0.806 0.892 0.891 0.891 0.807 0.892 0.89 0.892 0.807 0.891 0.891 0.892 0.806 0.892 0.891 0.891 0.807 0.891 0.891 V 46.435 45.538 44.642 43.745 42.849 41.953 41.056 40.159 39.263 38.366 37.47 36.573 35.677 34.78 33.884 32.987 32.09 31.194 30.387 29.491 28.594 27.698 26.801 25.904 25.008 24.111 23.215 22.319 21.422 20.525 19.629 18.737 17.841 16.944 16.048 15.152 14.255 13.359 12.462 11.565 10.669 9.772 8.875 7.979 7.083 6.187 5.29 4.393 3.497 2.6 1.703 0.807 -0.089 -0.986 -1.793 -2.69 v -0.896 -0.896 -0.897 -0.896 -0.897 -0.897 -0.896 -0.897 -0.897 -0.896 -0.896 -0.896 -0.897 -0.892 -0.896 -0.897 -0.897 z m -103.559,26.891 -0.269,0.812 -0.353,0.897 -0.359,0.807 -0.269,0.812 -0.353,0.807 -0.358,0.897 -0.27,0.812 -0.359,0.807 -0.352,0.806 -0.27,0.812 -0.359,0.897 -0.263,0.807 -0.359,0.812 -0.359,0.807 -0.268,0.807 -0.354,0.901 -0.358,0.808 -0.269,0.806 -0.359,0.812 -0.353,0.897 -0.269,0.812 -0.359,0.807 -0.353,-0.807 -0.268,-0.812 -0.359,-0.897 -0.359,-0.812 -0.264,-0.806 -0.358,-0.808 -0.359,-0.901 -0.353,-0.807 -0.27,-0.807 -0.358,-0.812 -0.359,-0.807 -0.264,-0.897 -0.358,-0.812 -0.359,-0.806 -0.268,-0.807 -0.354,-0.812 -0.359,-0.897 -0.358,-0.807 -0.263,-0.812 -0.359,-0.807 -0.359,-0.897 -0.269,-0.812 -0.353,-0.807 h 0.891 0.891 0.892 0.896 0.891 0.891 0.892 0.897 0.801 0.891 0.897 0.891 0.891 0.892 0.891 0.896 0.891 z m 28.03,-26.891 h -0.896 -0.803 -0.89 -0.897 -0.891 -0.892 -0.801 -0.897 -0.891 -0.891 -0.892 -0.896 -0.802 -0.891 -0.892 -0.896 -0.891 -0.802 -0.891 -0.896 l -0.354,0.808 -0.269,0.807 -0.358,0.807 -0.359,0.896 -0.264,0.802 -0.358,0.806 -0.359,0.807 -0.264,0.807 -0.358,0.807 -0.359,0.807 -0.268,0.807 -0.354,0.896 -0.359,0.807 -0.269,0.807 -0.359,0.807 h -0.891 -0.891 -0.891 -0.891 -0.807 -0.892 -0.891 -0.896 -0.891 -0.892 -0.891 -0.891 -0.897 -0.891 -0.801 -0.897 -0.892 -0.891 -0.891 -0.896 -0.892 -0.891 -0.891 -0.891 -0.808 -0.89 -0.892 -0.897 -0.891 l -0.353,-0.807 -0.269,-0.807 -0.359,-0.807 -0.358,-0.896 -0.264,-0.807 -0.358,-0.807 -0.359,-0.807 -0.269,-0.807 -0.353,-0.807 -0.359,-0.806 -0.269,-0.802 -0.354,-0.896 -0.358,-0.807 -0.269,-0.807 -0.359,-0.808 h -0.891 -0.891 -0.891 -0.897 -0.891 -0.981 -0.891 -0.892 -0.896 -0.891 -0.891 -0.892 -0.897 -0.89 -0.891 -0.981 -0.897 -0.891 -0.892 -0.891 l 0.353,0.808 0.359,0.807 0.358,0.807 0.354,0.896 0.269,0.802 0.359,0.806 0.358,0.807 0.353,0.807 0.359,0.807 0.359,0.897 0.353,0.807 0.359,0.806 0.268,0.807 0.359,0.807 0.353,0.807 0.359,0.896 0.358,0.807 0.354,0.808 0.359,0.806 0.358,0.807 0.269,0.807 0.353,0.897 0.359,0.806 0.359,0.807 0.353,0.807 0.359,0.807 0.359,0.807 0.353,0.897 0.269,0.806 0.359,0.807 0.358,0.807 0.354,0.807 0.358,0.807 0.358,0.896 0.354,0.807 0.358,0.807 0.269,0.807 0.359,0.806 0.353,0.807 0.359,0.897 0.359,0.807 0.353,0.807 0.358,0.807 0.359,0.806 0.269,0.808 0.354,0.801 0.358,0.897 0.358,0.806 0.354,0.808 0.358,0.807 0.359,0.806 0.353,0.807 0.269,0.897 0.359,0.806 0.358,0.807 0.354,0.807 0.359,0.807 0.358,0.807 0.354,0.897 0.358,0.806 0.269,0.807 0.358,0.807 0.354,0.807 0.358,0.807 0.359,0.896 0.353,0.807 0.359,0.807 0.359,0.807 0.263,0.806 0.359,0.808 0.359,0.896 0.359,0.807 0.353,0.807 0.359,0.807 0.358,0.807 0.353,0.806 0.27,0.897 0.358,0.807 0.359,0.807 0.353,0.807 h 0.891 0.807 0.891 0.891 0.897 0.801 0.891 0.892 0.897 0.802 0.89 0.892 0.896 0.802 0.891 0.891 0.897 0.801 0.892 l 0.358,-0.807 0.359,-0.807 0.354,-0.807 0.358,-0.897 0.269,-0.806 0.353,-0.807 0.359,-0.807 0.358,-0.807 0.359,-0.807 0.353,-0.896 0.359,-0.808 0.359,-0.806 0.263,-0.807 0.359,-0.807 0.359,-0.807 0.359,-0.896 0.353,-0.807 0.358,-0.807 0.359,-0.807 0.353,-0.807 0.269,-0.806 0.358,-0.897 0.354,-0.807 0.359,-0.807 0.358,-0.807 0.359,-0.807 0.353,-0.806 0.358,-0.897 0.27,-0.807 0.353,-0.806 0.358,-0.807 0.359,-0.808 0.359,-0.806 0.353,-0.897 0.359,-0.801 0.358,-0.808 0.264,-0.806 0.358,-0.807 0.359,-0.807 0.354,-0.807 0.358,-0.897 0.359,-0.807 0.359,-0.806 0.353,-0.807 0.269,-0.807 0.358,-0.807 0.354,-0.896 0.358,-0.807 0.359,-0.807 0.358,-0.807 0.354,-0.807 0.359,-0.806 0.268,-0.897 0.354,-0.807 0.358,-0.807 0.359,-0.807 0.353,-0.807 0.359,-0.806 0.359,-0.897 0.359,-0.807 0.263,-0.807 0.359,-0.806 0.359,-0.808 0.353,-0.807 0.358,-0.896 0.359,-0.807 0.358,-0.807 0.353,-0.807 0.27,-0.806 0.359,-0.807 0.353,-0.897 0.358,-0.807 0.358,-0.807 0.354,-0.807 0.358,-0.806 0.359,-0.802 0.27,-0.896 0.352,-0.807 0.359,-0.807 0.358,-0.808 z m -78.193,8.334 -0.717,-0.538 -0.623,-0.449 -0.717,-0.538 -0.712,-0.448 -0.712,-0.538 -0.717,-0.448 -0.712,-0.449 -0.807,-0.447 -0.802,-0.449 -0.802,-0.448 -0.806,-0.353 -0.802,-0.449 -0.891,-0.358 -0.801,-0.359 -0.897,-0.358 -0.801,-0.359 -0.803,-0.269 -0.806,-0.269 -0.802,-0.27 -0.891,-0.268 -0.801,-0.27 -0.897,-0.179 -0.802,-0.179 -0.891,-0.179 -0.896,-0.179 -0.892,-0.09 -0.981,-0.09 -0.891,-0.09 -0.981,-0.089 -0.897,-0.09 -0.98,-0.089 h -0.981 -0.982 -0.98 -0.897 l -0.891,0.089 -0.981,0.09 -0.891,0.089 -0.891,0.09 -0.897,0.09 -0.891,0.179 -0.892,0.18 -0.801,0.179 -0.896,0.179 -0.802,0.269 -0.891,0.179 -0.807,0.27 -0.802,0.358 -0.802,0.269 -0.89,0.359 -0.807,0.358 -0.802,0.358 -0.801,0.359 -0.808,0.448 -0.711,0.444 -0.802,0.448 -0.717,0.449 -0.712,0.447 -0.717,0.539 -0.712,0.537 -0.713,0.538 -0.627,0.538 -0.622,0.538 -0.628,0.628 -0.622,0.537 -0.628,0.628 -0.622,0.628 -0.538,0.627 -0.533,0.717 -0.538,0.628 -0.448,0.717 -0.533,0.718 -0.447,0.716 -0.444,0.718 -0.448,0.807 -0.448,0.717 -0.353,0.807 -0.359,0.807 -0.358,0.807 -0.354,0.806 -0.269,0.717 -0.359,0.808 -0.179,0.807 -0.264,0.806 -0.179,0.896 -0.269,0.808 -0.179,0.896 -0.09,0.807 -0.18,0.897 -0.088,0.806 -0.091,0.897 -0.084,0.897 -0.089,0.896 v 0.986 0.897 0.179 0.897 l 0.089,0.986 v 0.896 l 0.084,0.897 0.091,0.986 0.179,0.891 0.089,0.897 0.179,0.807 0.269,0.896 0.18,0.897 0.263,0.807 0.269,0.896 0.269,0.807 0.359,0.897 0.354,0.806 0.358,0.807 0.359,0.807 0.353,0.807 0.448,0.807 0.448,0.717 0.444,0.718 0.447,0.717 0.449,0.717 0.532,0.717 0.538,0.717 0.533,0.717 0.538,0.629 0.622,0.627 0.538,0.628 0.623,0.626 0.627,0.629 0.622,0.537 0.717,0.628 0.623,0.538 0.712,0.538 0.717,0.448 0.712,0.538 0.718,0.448 0.711,0.448 0.802,0.449 0.807,0.448 0.801,0.448 0.802,0.359 0.806,0.358 0.892,0.449 0.712,0.268 0.891,0.27 0.808,0.358 0.801,0.18 0.801,0.269 0.896,0.179 0.802,0.269 0.891,0.179 0.892,0.09 0.896,0.179 0.892,0.09 0.89,0.089 0.892,0.09 0.897,0.09 h 0.981 0.891 0.98 0.981 l 0.987,-0.09 0.981,-0.09 h 0.891 l 0.891,-0.089 0.981,-0.18 0.807,-0.089 0.891,-0.18 0.892,-0.179 0.806,-0.179 0.801,-0.179 0.803,-0.18 0.807,-0.269 0.801,-0.179 0.712,-0.269 0.807,-0.269 0.802,-0.358 0.801,-0.359 0.807,-0.359 0.802,-0.448 0.801,-0.359 0.718,-0.448 0.801,-0.448 0.712,-0.448 0.807,-0.449 0.712,-0.537 0.712,-0.449 0.717,-0.538 0.712,-0.538 0.717,-0.627 0.712,-0.538 -0.538,-0.718 -0.622,-0.627 -0.538,-0.717 -0.622,-0.717 -0.538,-0.718 -0.533,-0.627 -0.628,-0.717 -0.532,-0.717 -0.538,-0.629 -0.623,-0.717 -0.537,-0.717 -0.623,-0.717 -0.538,-0.628 -0.532,-0.717 -0.627,-0.717 -0.534,-0.717 -0.627,-0.628 -0.533,-0.717 -0.717,0.538 -0.712,0.627 -0.717,0.449 -0.712,0.538 -0.712,0.448 -0.717,0.449 -0.713,0.447 -0.801,0.449 -0.717,0.358 -0.712,0.359 -0.717,0.269 -0.802,0.269 -0.801,0.269 -0.807,0.179 -0.891,0.18 -0.891,0.179 -0.892,0.089 -0.981,0.09 -0.986,0.089 h -0.981 -0.891 l -0.891,-0.089 -0.807,-0.09 -0.891,-0.179 -0.802,-0.18 -0.807,-0.268 -0.801,-0.269 -0.802,-0.359 -0.802,-0.358 -0.717,-0.448 -0.711,-0.449 -0.718,-0.449 -0.622,-0.537 -0.628,-0.538 -0.622,-0.538 -0.538,-0.627 -0.622,-0.628 -0.538,-0.717 -0.444,-0.628 -0.448,-0.717 -0.442,-0.807 -0.449,-0.717 -0.358,-0.807 -0.269,-0.807 -0.354,-0.807 -0.269,-0.896 -0.179,-0.892 -0.179,-0.806 -0.18,-0.987 -0.089,-0.896 -0.084,-0.896 v -0.987 -0.179 -0.897 l 0.084,-0.896 0.089,-0.807 0.09,-0.897 0.179,-0.806 0.18,-0.808 0.179,-0.806 0.269,-0.807 0.264,-0.717 0.359,-0.896 0.358,-0.808 0.443,-0.807 0.448,-0.717 0.448,-0.717 0.533,-0.718 0.538,-0.627 0.622,-0.628 0.539,-0.627 0.621,-0.538 0.718,-0.538 0.712,-0.538 0.711,-0.448 0.717,-0.448 0.803,-0.359 0.801,-0.359 0.806,-0.358 0.892,-0.269 0.891,-0.269 0.897,-0.18 0.891,-0.179 0.891,-0.089 0.981,-0.09 h 0.981 1.07 l 0.987,0.09 0.981,0.089 0.891,0.09 0.891,0.18 0.897,0.179 0.891,0.268 0.801,0.18 0.803,0.358 0.717,0.359 0.801,0.359 0.627,0.358 0.713,0.449 V -0.269 0.627 1.524 2.42 3.407 4.303 5.2 6.096 6.993 h -0.892 -0.806 -0.892 -0.891 -0.891 -0.807 -0.892 -0.891 -0.891 -0.806 -0.892 -0.891 -0.892 -0.806 -0.892 v 0.896 0.807 0.897 0.896 0.897 0.807 0.896 0.897 0.896 0.808 0.896 0.896 0.897 0.807 0.891 h 0.892 0.896 0.892 0.89 0.892 0.891 0.897 0.891 0.891 0.892 0.896 0.891 0.891 0.891 0.897 0.892 0.891 0.891 0.896 0.892 0.891 0.891 0.896 0.892 0.891 0.891 0.897 0.891 0.892 0.891 0.896 0.891 0.892 V 19.186 18.29 17.393 16.586 15.69 14.793 13.897 13 12.103 11.297 10.4 9.503 8.607 7.71 6.814 5.917 5.111 4.214 3.317 2.42 1.524 0.627 -0.269 -1.076 -1.972 -2.869 -3.766 -4.662 -5.558 -6.366 -7.262 -8.158 -9.055 Z"
               style="fill:#ffffff;fill-opacity:1;fill-rule:nonzero;stroke:none"
               id="path28" />
          </g>
          <path
             inkscape:connector-curvature="0"
             d="m 316.54528,440.04633 h 38.683 v 27.93568 h -38.683 v 57.03092 h 40.223 v 27.93568 h -73.072 V 351.33312 h 73.684 v 27.93661 h -40.835 z"
             style="fill:#ffffff;fill-opacity:1;fill-rule:nonzero;stroke:none;stroke-width:0.9662385"
             id="path32" />
          <g
             id="g34"
             transform="matrix(1,0,0,0.93361686,593.62058,433.99453)"
             style="fill:#ffffff">
            <path
               inkscape:connector-curvature="0"
               d="m 0,0 v -48.744 c 0,-8.639 -3.993,-12.647 -12.278,-12.647 h -6.144 c -8.595,0 -12.588,4.008 -12.588,12.647 V 87.618 c 0,8.638 3.993,12.646 12.588,12.646 h 5.527 c 8.29,0 12.283,-4.008 12.283,-12.646 V 45.349 h 32.233 v 44.12 c 0,26.837 -12.895,39.795 -39.6,39.795 H -23.948 C -50.654,129.264 -63.86,116 -63.86,89.158 V -50.284 c 0,-26.843 13.206,-40.106 39.912,-40.106 h 16.274 c 26.712,0 39.911,13.263 39.911,40.106 V 0 Z"
               style="fill:#ffffff;fill-opacity:1;fill-rule:nonzero;stroke:none"
               id="path36" />
          </g>
          <path
             inkscape:connector-curvature="0"
             d="m 479.54568,351.33274 h 32.854 v 201.61643 h -32.854 z"
             style="fill:#ffffff;fill-opacity:1;fill-rule:nonzero;stroke:none;stroke-width:0.9662385"
             id="path38" />
          <g
             id="g40"
             transform="matrix(1,0,0,0.93361686,431.87638,463.37433)"
             style="fill:#ffffff">
            <path
               inkscape:connector-curvature="0"
               d="m 0,0 c 0,-8.639 -3.987,-12.652 -12.277,-12.652 h -13.511 v 79.596 h 13.511 C -3.987,66.944 0,62.935 0,54.298 Z m -7.061,95.944 h -51.577 v -215.952 h 32.85 v 78.362 h 18.727 c 26.711,0 39.911,13.263 39.911,40.1 v 57.384 c 0,26.842 -13.2,40.106 -39.911,40.106"
               style="fill:#ffffff;fill-opacity:1;fill-rule:nonzero;stroke:none"
               id="path42" />
          </g>
          <g
             id="g44"
             transform="matrix(1,0,0,0.93361686,361.8565,177.50368)"
             style="fill:#ffffff">
            <path
               inkscape:connector-curvature="0"
               d="M 0,0 H 188.054 L 92.068,-31.654 Z"
               style="fill:#ffffff;fill-opacity:1;fill-rule:evenodd;stroke:none"
               id="path46" />
          </g>
        </g>
      </g>
    </g>
  </g>
</svg>
