<?xml version="1.0" encoding="UTF-8"?>
<svg xmlns="http://www.w3.org/2000/svg" xmlns:xlink="http://www.w3.org/1999/xlink" width="128px" height="128px" viewBox="0 0 128 128" version="1.1">
<defs>
<filter id="alpha" filterUnits="objectBoundingBox" x="0%" y="0%" width="100%" height="100%">
  <feColorMatrix type="matrix" in="SourceGraphic" values="0 0 0 0 1 0 0 0 0 1 0 0 0 0 1 0 0 0 1 0"/>
</filter>
<mask id="mask0">
  <g filter="url(#alpha)">
<rect x="0" y="0" width="128" height="128" style="fill:rgb(0%,0%,0%);fill-opacity:0.2;stroke:none;"/>
  </g>
</mask>
<clipPath id="clip1">
  <rect x="0" y="0" width="128" height="128"/>
</clipPath>
<g id="surface5" clip-path="url(#clip1)">
<path style=" stroke:none;fill-rule:nonzero;fill:rgb(0%,0%,0%);fill-opacity:1;" d="M 87.996094 26.003906 L 72 34 L 96 50 L 96 34 L 88 26.003906 Z M 31.996094 30.003906 L 20 34.003906 L 87.996094 102 L 99.996094 102 L 107.996094 82 Z M 24 74 L 20 94 L 28 102 L 35.996094 102 L 47.996094 98 Z M 24 74 "/>
</g>
<mask id="mask1">
  <g filter="url(#alpha)">
<rect x="0" y="0" width="128" height="128" style="fill:rgb(0%,0%,0%);fill-opacity:0.2;stroke:none;"/>
  </g>
</mask>
<clipPath id="clip2">
  <rect x="0" y="0" width="128" height="128"/>
</clipPath>
<g id="surface8" clip-path="url(#clip2)">
<path style=" stroke:none;fill-rule:nonzero;fill:rgb(100%,100%,100%);fill-opacity:1;" d="M 72.820312 8.003906 L 53.601562 8.332031 L 49.703125 11.269531 L 50.023438 11.597656 L 37.324219 11.925781 L 38.300781 10.621094 L 9.308594 9.964844 L 8.980469 11.925781 L 8.652344 14.863281 L 8.835938 15.203125 L 8.980469 13.925781 L 9.308594 11.964844 L 38.300781 12.621094 L 37.324219 13.925781 L 50.023438 13.597656 L 49.703125 13.269531 L 53.601562 10.332031 L 71.660156 10.023438 L 71.195312 9.957031 Z M 82.269531 8.644531 L 81.617188 12.246094 L 76.40625 12.894531 L 75.753906 10.613281 L 72.679688 10.171875 L 71.195312 11.957031 L 75.753906 12.613281 L 76.40625 14.894531 L 81.617188 14.246094 L 82.269531 10.644531 L 103.441406 10.972656 L 104.089844 13.589844 L 105.726562 11.300781 L 116.800781 13.261719 L 119.375 14.40625 L 119.40625 14.207031 L 119.734375 12.566406 L 116.800781 11.261719 L 105.726562 9.300781 L 104.089844 11.589844 L 103.441406 8.972656 Z M 118.945312 19.210938 L 118.753906 20.449219 L 119.734375 24.378906 L 119.734375 22.378906 Z M 10.402344 20.074219 L 9.636719 25.972656 L 8.003906 32.503906 L 8.195312 33.730469 L 9.636719 27.972656 L 10.613281 20.457031 Z M 116.972656 48.964844 L 116.09375 49.46875 L 116.523438 50.199219 L 117.007812 50.007812 L 117.242188 49.421875 Z M 11.023438 51.34375 L 10.613281 53.410156 L 10.738281 54.789062 L 11.261719 52.140625 Z M 115.242188 53.464844 L 115.054688 54.085938 L 115.289062 55.820312 L 116.65625 57.664062 L 118.15625 62.054688 L 118.441406 65.011719 L 118.5 63.640625 L 118.15625 60.054688 L 116.65625 55.664062 L 115.289062 53.820312 Z M 13.574219 63.972656 L 9.636719 65.492188 L 9.734375 67.453125 L 13.863281 65.863281 Z M 119.890625 71.71875 L 118.28125 71.960938 L 117.175781 72.144531 L 116.203125 73.03125 L 116.203125 74.304688 L 118.28125 73.960938 L 119.890625 73.71875 Z M 119.890625 74.382812 L 119.890625 76.382812 L 119.996094 116.539062 L 120 116.539062 Z M 12.636719 82.332031 L 11.261719 91.953125 L 9.957031 92.609375 L 8.980469 114.5 L 9.070312 114.488281 L 9.957031 94.609375 L 11.261719 93.953125 L 12.894531 82.527344 Z M 12.636719 82.332031 "/>
</g>
<mask id="mask2">
  <g filter="url(#alpha)">
<rect x="0" y="0" width="128" height="128" style="fill:rgb(0%,0%,0%);fill-opacity:0.2;stroke:none;"/>
  </g>
</mask>
<clipPath id="clip3">
  <rect x="0" y="0" width="128" height="128"/>
</clipPath>
<g id="surface11" clip-path="url(#clip3)">
<path style=" stroke:none;fill-rule:nonzero;fill:rgb(0%,0%,0%);fill-opacity:1;" d="M 72.820312 10.003906 L 71.660156 10.023438 L 72.679688 10.171875 Z M 119.375 14.40625 L 118.753906 18.449219 L 118.945312 19.210938 L 119.40625 16.207031 L 119.734375 14.566406 Z M 8.835938 15.203125 L 8.652344 16.863281 L 10.402344 20.074219 L 10.613281 18.457031 Z M 8.195312 33.730469 L 8.003906 34.503906 L 8.980469 40.714844 L 9.308594 45.609375 L 11.023438 51.34375 L 11.261719 50.140625 L 9.308594 43.609375 L 8.980469 38.714844 Z M 119.734375 36.097656 L 119.40625 40.015625 L 118.757812 45.894531 L 117.132812 46.875 L 116.09375 47.46875 L 116.972656 48.964844 L 117.132812 48.875 L 118.757812 47.890625 L 119.40625 42.015625 L 119.734375 38.09375 Z M 116.523438 50.199219 L 115.507812 50.59375 L 115.398438 50.9375 L 115.054688 52.085938 L 115.242188 53.464844 L 115.398438 52.9375 L 115.507812 52.59375 L 117.007812 52.007812 L 117.242188 51.421875 Z M 10.734375 54.789062 L 10.613281 55.410156 L 10.933594 59 L 13.214844 61.617188 L 13.574219 63.972656 L 13.863281 63.863281 L 13.214844 59.617188 L 10.933594 57.003906 Z M 118.441406 65.011719 L 118.28125 68.609375 L 117.351562 69.984375 L 116.203125 71.03125 L 116.203125 72.304688 L 117.175781 72.144531 L 117.351562 71.984375 L 118.28125 70.609375 L 118.5 65.640625 Z M 9.734375 67.453125 L 9.636719 67.492188 L 10.285156 80.566406 L 12.636719 82.332031 L 12.894531 80.527344 L 10.285156 78.566406 Z M 10.128906 114.34375 L 9.070312 114.488281 L 8.980469 116.5 L 10.128906 116.34375 L 12.894531 116.917969 C 12.894531 116.917969 16.242188 118.078125 16.933594 118.308594 C 17.625 118.539062 18.652344 117.269531 18.652344 117.269531 L 21.417969 117.269531 L 23.722656 116.808594 L 24.996094 117.386719 L 26.144531 117.269531 L 29.027344 117.042969 L 30.394531 116.457031 L 30.980469 117.847656 L 31.441406 117.5 L 32.714844 116.914062 L 35.355469 116.6875 L 35.925781 117.5 C 35.925781 117.5 39.148438 117.84375 40.300781 117.84375 C 41.453125 117.84375 41.230469 116.914062 41.230469 116.914062 C 41.230469 116.914062 41.570312 116.804688 42.144531 117.382812 C 42.722656 117.960938 43.535156 117.148438 43.535156 117.148438 L 44.683594 116.570312 L 45.496094 117.382812 L 46.300781 117.960938 L 48.488281 117.5 L 52.046875 117.5 L 52.867188 117.265625 L 56.203125 122 L 56.421875 119.585938 L 61.835938 119.585938 C 62.296875 119.585938 62.078125 121.195312 62.078125 121.195312 L 65.640625 120.039062 L 67.484375 121.882812 L 71.289062 119.460938 L 73.359375 119.109375 L 77.390625 118.890625 L 83.148438 118.890625 L 89.710938 119.34375 L 91.445312 118.65625 L 92.703125 117.5 L 96.164062 119.453125 L 98.695312 118.414062 C 98.695312 118.414062 101.460938 119.46875 101.921875 119.585938 C 102.382812 119.699219 106.648438 119.109375 106.648438 119.109375 L 109.289062 118.414062 L 107.570312 117.148438 L 108.71875 116.6875 L 113.554688 116.914062 L 120 118.539062 L 119.996094 116.539062 L 113.554688 114.914062 L 108.71875 114.6875 L 107.570312 115.148438 L 109.289062 116.414062 L 106.648438 117.109375 C 106.648438 117.109375 102.382812 117.699219 101.921875 117.585938 C 101.460938 117.46875 98.695312 116.414062 98.695312 116.414062 L 96.164062 117.453125 L 92.703125 115.496094 L 91.445312 116.652344 L 89.710938 117.339844 L 83.148438 116.886719 L 77.390625 116.886719 L 73.359375 117.105469 L 71.289062 117.457031 L 67.484375 119.878906 L 65.640625 118.035156 L 62.078125 119.191406 C 62.078125 119.191406 62.296875 117.582031 61.835938 117.582031 L 56.421875 117.582031 L 56.203125 120 L 52.867188 115.265625 L 52.046875 115.5 L 48.488281 115.5 L 46.300781 115.960938 L 45.496094 115.382812 L 44.683594 114.570312 L 43.535156 115.148438 C 43.535156 115.148438 42.71875 115.960938 42.144531 115.382812 C 41.566406 114.804688 41.230469 114.914062 41.230469 114.914062 C 41.230469 114.914062 41.453125 115.84375 40.300781 115.84375 C 39.148438 115.84375 35.925781 115.5 35.925781 115.5 L 35.355469 114.6875 L 32.714844 114.914062 L 31.441406 115.5 L 30.980469 115.847656 L 30.394531 114.457031 L 29.027344 115.042969 L 26.144531 115.269531 L 24.996094 115.386719 L 23.722656 114.808594 L 21.417969 115.269531 L 18.652344 115.269531 C 18.652344 115.269531 17.625 116.539062 16.933594 116.308594 C 16.242188 116.074219 12.894531 114.914062 12.894531 114.914062 Z M 10.128906 114.34375 "/>
</g>
</defs>
<g id="surface1">
<path style=" stroke:none;fill-rule:nonzero;fill:rgb(76.078433%,20.784314%,16.470589%);fill-opacity:1;" d="M 72.824219 8.003906 L 53.601562 8.332031 L 49.703125 11.269531 L 50.023438 11.597656 L 37.324219 11.925781 L 38.300781 10.621094 L 9.308594 9.964844 L 8.980469 11.925781 L 8.652344 14.863281 L 10.613281 18.457031 L 9.636719 25.972656 L 8.003906 32.503906 L 8.980469 38.714844 L 9.308594 43.609375 L 11.261719 50.140625 L 10.613281 53.410156 L 10.933594 57.003906 L 13.214844 59.617188 L 13.863281 63.863281 L 9.636719 65.492188 L 10.285156 78.566406 L 12.894531 80.527344 L 11.261719 91.953125 L 9.957031 92.609375 L 8.980469 114.5 L 10.128906 114.34375 L 12.894531 114.917969 C 12.894531 114.917969 16.242188 116.078125 16.933594 116.308594 C 17.625 116.539062 18.652344 115.269531 18.652344 115.269531 L 21.417969 115.269531 L 23.722656 114.808594 L 24.996094 115.386719 L 26.144531 115.269531 L 29.027344 115.042969 L 30.394531 114.457031 L 30.980469 115.847656 L 31.441406 115.5 L 32.714844 114.914062 L 35.355469 114.6875 L 35.925781 115.5 C 35.925781 115.5 39.148438 115.84375 40.300781 115.84375 C 41.453125 115.84375 41.230469 114.914062 41.230469 114.914062 C 41.230469 114.914062 41.566406 114.804688 42.144531 115.382812 C 42.71875 115.960938 43.535156 115.148438 43.535156 115.148438 L 44.683594 114.570312 L 45.496094 115.382812 L 46.300781 115.960938 L 48.488281 115.5 L 52.050781 115.5 L 52.871094 115.265625 L 56.207031 120 L 56.425781 117.585938 L 61.839844 117.585938 C 62.300781 117.585938 62.082031 119.195312 62.082031 119.195312 L 65.644531 118.039062 L 67.488281 119.882812 L 71.292969 117.460938 L 73.363281 117.109375 L 77.394531 116.890625 L 83.152344 116.890625 L 89.714844 117.34375 L 91.449219 116.65625 L 92.707031 115.5 L 96.164062 117.453125 L 98.695312 116.414062 C 98.695312 116.414062 101.464844 117.472656 101.921875 117.585938 C 102.382812 117.703125 106.648438 117.109375 106.648438 117.109375 L 109.289062 116.414062 L 107.570312 115.148438 L 108.71875 114.6875 L 113.554688 114.914062 L 120 116.539062 L 119.890625 74.386719 L 119.890625 71.722656 L 118.28125 71.964844 L 116.203125 72.308594 L 116.203125 71.035156 L 117.351562 69.988281 L 118.28125 68.613281 L 118.5 63.644531 L 118.15625 60.058594 L 116.65625 55.667969 L 115.289062 53.824219 L 115.054688 52.089844 L 115.398438 50.941406 L 115.507812 50.597656 L 117.007812 50.011719 L 117.242188 49.425781 L 116.09375 47.472656 L 117.132812 46.878906 L 118.757812 45.894531 L 119.40625 40.019531 L 119.734375 36.097656 L 119.734375 22.378906 L 118.753906 18.445312 L 119.40625 14.203125 L 119.734375 12.5625 L 116.804688 11.257812 L 105.726562 9.296875 L 104.089844 11.585938 L 103.441406 8.96875 L 82.273438 8.640625 L 81.617188 12.242188 L 76.410156 12.890625 L 75.757812 10.609375 L 71.195312 9.953125 L 72.828125 7.992188 Z M 72.824219 8.003906 "/>
<use xlink:href="#surface5" mask="url(#mask0)"/>
<path style=" stroke:none;fill-rule:nonzero;fill:rgb(100%,100%,100%);fill-opacity:1;" d="M 87.996094 24.003906 L 72 32 L 96 48 L 96 32 L 88 24.003906 Z M 32 28 L 20 32 L 88 100 L 99.996094 100 L 107.996094 80 L 32 28.003906 Z M 24 72 L 20 92 L 28 100 L 36 100 L 48 96 Z M 24 72 "/>
<use xlink:href="#surface8" mask="url(#mask1)"/>
<use xlink:href="#surface11" mask="url(#mask2)"/>
</g>
</svg>
