<?xml version="1.0" encoding="UTF-8"?>
<svg xmlns="http://www.w3.org/2000/svg" xmlns:xlink="http://www.w3.org/1999/xlink" width="512px" height="512px" viewBox="0 0 512 512" version="1.1">
<g id="surface1">
<path style=" stroke:none;fill-rule:evenodd;fill:rgb(18.431373%,17.647059%,18.039216%);fill-opacity:1;" d="M 465.625 0 L 46.507812 0 C 12.535156 0 0 10.800781 0 40.082031 L 0 393.390625 C 0 396.703125 0.15625 399.78125 0.496094 402.632812 C 1.269531 409.023438 1.414062 415.21875 8.3125 422.269531 C 8.988281 422.960938 16.03125 427.476562 16.03125 427.476562 C 19.820312 429.078125 22.40625 430.257812 26.679688 431.738281 L 233.058594 506.230469 C 243.773438 510.460938 248.253906 512.109375 256.035156 511.976562 C 256.046875 511.976562 256.054688 511.976562 256.066406 511.976562 C 256.074219 511.976562 256.085938 511.976562 256.097656 511.976562 C 263.878906 512.109375 268.359375 510.460938 279.074219 506.230469 L 485.449219 431.738281 C 489.722656 430.257812 492.308594 429.078125 496.101562 427.476562 C 496.101562 427.476562 503.144531 422.960938 503.816406 422.269531 C 510.71875 415.21875 510.863281 409.023438 511.636719 402.632812 C 511.976562 399.78125 512.132812 396.703125 512.132812 393.390625 L 512.132812 40.082031 C 512.132812 10.800781 499.59375 0 465.625 0 "/>
</g>
</svg>
